<svg width="60px" viewBox="0 0 74 68" version="1.1" xmlns="http://www.w3.org/2000/svg" xmlns:xlink="http://www.w3.org/1999/xlink">
    <g class="Page-1" stroke="none" stroke-width="1" fill="none" fill-rule="evenodd" stroke-linecap="round" stroke-linejoin="round">
        <g class="graybeard" transform="translate(-13.000000, -16.000000)" stroke="#54534A" stroke-width="1.9991">
            <g class="beard" transform="translate(14.000000, 17.000000)">
                <g class="stache" transform="translate(9.000000, 0.000000)">
                    <path d="M38.6,9.1 C37.6,10.2 36.2,10.9 34.5,10.9 L34.5,10.9 C31.5,10.9 29.1,8.5 29.1,5.5 C29.1,2.5 31.5,0.1 34.5,0.1 L34.5,0.1 C36.1,0.1 37.6,0.8 38.6,1.9 L38.6,1.9 L44.9,9 L44.9,9 C45.9,10.1 47.3,10.9 49,10.9 L49,10.9 L49,10.9 C52,10.9 54.4,8.5 54.4,5.5" class="stache-right"></path>
                    <path d="M9.6,9.1 C8.6,10.2 7.2,10.9 5.5,10.9 L5.5,10.9 C2.5,10.9 0.1,8.5 0.1,5.5 C0.1,2.5 2.5,0.1 5.5,0.1 L5.5,0.1 C7.1,0.1 8.6,0.8 9.6,1.9 L9.6,1.9 L15.9,9 L15.9,9 C16.9,10.1 18.3,10.9 20,10.9 L20,10.9 L20,10.9 C23,10.9 25.4,8.5 25.4,5.5" class="stach-left" transform="translate(12.750000, 5.500000) scale(-1, 1) translate(-12.750000, -5.500000) "></path>
                </g>
                <g class="top" transform="translate(9.000000, 18.000000)">
                    <path d="M0,13.5 L0,5.4 C0,2.4 2.4,0 5.4,0 L5.4,0 C8.4,0 10.8,2.4 10.8,5.4 L10.8,9"></path>
                    <path d="M54,13.5 L54,0"></path>
                    <path d="M53.8,5.4 C53.8,8.4 51.4,10.8 48.4,10.8 L48.4,10.8 C45.4,10.8 43,8.4 43,5.4 L43,5.4 L43,0"></path>
                    <path d="M29,12.7 L29,5.4 C29,2.4 31.4,0 34.4,0 L34.4,0 C37.4,0 39.8,2.4 39.8,5.4 L39.8,15.9"></path>
                    <path d="M14,12.7 L14,9.7 L14,5.4 C14,2.4 16.4,0 19.4,0 L19.4,0 C22.4,0 24.8,2.4 24.8,5.4 C24.8,8.4 22.4,10.8 19.4,10.8 L19.4,10.8 C17,10.8 14.9,9.2 14.2,7 C14.2,7 14,6.3 14,5.4"></path>
                </g>
                <g class="mid-1" transform="translate(0.000000, 25.000000)">
                    <path d="M12.3,14.9 C12.2,14.9 12.1,14.8 12,14.8 C10.7,14.3 9.6,13.3 9,12"></path>
                    <path d="M14,4 C17,4 19.4,6.4 19.4,9.4 L19.4,9.4 C19.4,11.5 18.2,13.3 16.4,14.2"></path>
                    <path d="M29,4 C32,4 34.4,6.4 34.4,9.4 L34.4,9.4"></path>
                    <path d="M5,14.8 C5,14.8 4.9,14.8 5,14.8 C2.2,14.5 0,12.2 0,9.4 L0,9.4 C0,6.4 2.4,4 5.4,4 L9,4"></path>
                    <path d="M59,14.9 C60.5,14.5 61.8,13.4 62.4,12"></path>
                    <path d="M57.4,4 C54.4,4 52,6.4 52,9.4 L52,9.4 C52,11.4 53.1,13.2 54.8,14.1"></path>
                    <path d="M67,10.8 C69.8,10.6 72,8.3 72,5.4 L72,5.4 C72,2.4 69.6,0 66.6,0 L63,0"></path>
                    <path d="M38,4 L48.8,4"></path>
                </g>
                <g class="mid-2" transform="translate(9.000000, 34.000000)">
                    <path d="M35,6.3 C35,6.9 35,7.4 35.1,7.7 C35.2,8.1 35.2,8.2 35.2,8.2 C35.7,9.7 37.1,10.8 38.8,10.8 L38.8,10.8 C40.9,10.8 42.6,9.1 42.6,7 L42.6,3.8 C42.6,1.7 40.9,0 38.8,0 L38.8,0 C36.7,0 35,1.7 35,3.8 L35,6.3 L35,7 L35,12.9"></path>
                    <path d="M42.8,21.8 L42.8,14.6 L42.8,14.8 L42.8,14.8 C42.8,12.7 41.1,11 39,11"></path>
                    <path d="M30.6,11 L23,11"></path>
                    <path d="M30.6,16.4 L30.6,3.8 C30.6,1.7 28.9,0 26.8,0 L26.8,0 C24.7,0 23,1.7 23,3.8 L23,16.4"></path>
                    <path d="M0,17.8 L0,17.8 C0,19.9 1.7,21.6 3.8,21.6 L3.8,21.6 C5.9,21.6 7.6,19.9 7.6,17.8 L7.6,14.4 C7.6,12.3 5.9,10.8 3.8,10.8 L3.8,10.8 L3.8,10.8 C5.9,10.8 7.6,9.1 7.6,7 L7.6,3.8 C7.6,1.7 5.9,0 3.8,0 L3.8,0 C1.7,0 0,1.7 0,3.8 L0,17.8 Z"></path>
                    <path d="M46,5 L46,17.7 L46,21.5 L49.8,21.5 L49.8,21.5 C51.9,21.5 53.6,19.8 53.6,17.7 L53.6,3.8 C53.6,1.7 51.9,0 49.8,0 L49.8,0 C47.7,0 46,1.7 46,3.8 L46,6.3"></path>
                    <path d="M19.2,3.6 C19.2,1.6 17.6,0 15.6,0 L15.6,0 C13.6,0 12,1.6 12,3.6 L12,17.9 C12,19.9 13.6,21.5 15.6,21.5 L15.6,21.5 C16.1,21.5 16.5,21.4 17,21.2 C17.1,21.2 17.2,21.1 17.2,21.1"></path>
                    <path d="M13,11 L19.6,11"></path>
                </g>
                <g class="bottom" transform="translate(23.000000, 50.000000)">
                    <path d="M21,6.3 L21,3"></path>
                    <path d="M25.8,10.4 L25.8,10.4 C25.8,13.4 23.4,15.8 20.4,15.8 C17.4,15.8 15,13.4 15,10.4 L15,10.4 C15,8.8 15.7,7.3 16.8,6.3 L16.8,6.3 L23.9,0 L23.9,0"></path>
                    <path d="M0,10.4 L0,10.4 C0,13.4 2.4,15.8 5.4,15.8 C8.4,15.8 10.8,13.4 10.8,10.4 L10.8,10.4 C10.8,8.8 10.1,7.3 9,6.3 L9,6.3 L1.9,0 L1.9,0"></path>
                </g>
            </g>
        </g>
    </g>
</svg>